<svg id="Layer_1" data-name="Layer 1" xmlns="http://www.w3.org/2000/svg" viewBox="0 0 200 164"><title>aaha__logoArtboard 1</title><rect x="111.01684" y="134.69992" width="26.74275" height="26.97619" style="fill:#ce0e2d"/><polygon points="68.909 126.867 82.473 126.867 75.69 106.514 68.909 126.867" style="fill:#ce0e2d"/><polygon points="19.312 126.867 32.881 126.867 26.1 106.514 19.312 126.867" style="fill:#ce0e2d"/><path d="M191.48788,92.89459c0-.38152-.28433-.63816-.897-.63816a2.55738,2.55738,0,0,0-.541.04854v1.20457h.46236C191.051,93.50954,191.48788,93.32925,191.48788,92.89459Z" style="fill:#ce0e2d"/><polygon points="16.702 134.7 7.71 161.676 44.483 161.676 35.491 134.7 16.702 134.7" style="fill:#ce0e2d"/><polygon points="66.298 134.7 57.309 161.676 94.077 161.676 85.086 134.7 66.298 134.7" style="fill:#ce0e2d"/><path d="M190.71573,97.04915a3.36255,3.36255,0,0,0-.0232-6.71866h-.02545a3.361,3.361,0,0,0,.04865,6.71866Zm-1.66469-5.3569a7.8529,7.8529,0,0,1,1.616-.15482,2.3877,2.3877,0,0,1,1.45895.33287,1.14309,1.14309,0,0,1,.41147.89479,1.08623,1.08623,0,0,1-.87159,1.00333v.04864c.40922.12715.64277.46.76754,1.0288a2.76289,2.76289,0,0,0,.3098,1.02417h-1.05188a3.52255,3.52255,0,0,1-.33524-1.00334c-.074-.46013-.32837-.6636-.8717-.6636h-.46V95.87H189.051Z" style="fill:#ce0e2d"/><path d="M177.25759,92.8992l21.40908,64.22236V50.421C198.66667,1,149.24327,1,149.24327,1H.97781V157.117L22.38912,92.8992H29.8153L50.896,156.14131,71.979,92.8992h7.42843l22.92331,68.77691h.85785V94.13834h7.8283V126.8669h26.74275V94.13834h7.833v67.53777h1.31323L169.83153,92.8992ZM190.69253,89.489h.0232a4.21664,4.21664,0,1,1-4.35355,4.1986A4.24457,4.24457,0,0,1,190.69253,89.489Z" style="fill:#ce0e2d"/><polygon points="182.938 134.7 164.146 134.7 155.16 161.676 191.925 161.676 182.938 134.7" style="fill:#ce0e2d"/><polygon points="173.542 106.514 166.759 126.867 180.326 126.867 173.542 106.514" style="fill:#ce0e2d"/><path d="M182.9381,134.69992l8.9867,26.97619h6.74187v-4.55455L177.25759,92.8992h-7.42606l-22.92568,68.77691h8.25374l8.98668-26.97619Zm-9.39591-28.18549,6.7834,20.35247H166.7589Z" style="fill:#fff"/><path d="M71.979,92.8992,50.896,156.14131,29.8153,92.8992H22.38912L.97781,157.117v4.55916h6.7325l8.99143-26.97619H35.4912l8.99132,26.97619H57.30937l8.98907-26.97619H85.08565L94.077,161.67611h8.25373L79.40738,92.8992ZM19.31188,126.8669l6.788-20.35247,6.781,20.35247Zm49.59682,0,6.781-20.35247,6.78341,20.35247Z" style="fill:#fff"/><polygon points="137.76 94.138 137.76 126.867 111.017 126.867 111.017 94.138 103.189 94.138 103.189 161.676 111.017 161.676 111.017 134.7 137.76 134.7 137.76 161.676 145.593 161.676 145.593 94.138 137.76 94.138" style="fill:#fff"/><path d="M190.69253,97.91849a4.21545,4.21545,0,1,0,.0232-8.42952h-.0232a4.2163,4.2163,0,1,0,0,8.42952Zm-.02545-7.588h.02545a3.24668,3.24668,0,1,1-.02545,0Z" style="fill:#fff"/><path d="M190.02443,94.20309h.46c.54333,0,.79772.20347.8717.6636a3.52255,3.52255,0,0,0,.33524,1.00334h1.05188a2.76289,2.76289,0,0,1-.3098-1.02417c-.12477-.56879-.35832-.90165-.76754-1.0288v-.04864a1.08623,1.08623,0,0,0,.87159-1.00333,1.14309,1.14309,0,0,0-.41147-.89479,2.3877,2.3877,0,0,0-1.45895-.33287,7.8529,7.8529,0,0,0-1.616.15482V95.87h.97339Zm.02545-1.89812a2.55738,2.55738,0,0,1,.541-.04854c.61271,0,.897.25664.897.63816,0,.43466-.43692.615-.97564.615h-.46236Z" style="fill:#fff"/></svg>